<svg version="1.1" id="Layer_1" xmlns="http://www.w3.org/2000/svg" xmlns:xlink="http://www.w3.org/1999/xlink" x="0px" y="0px"
	 width="100%" viewBox="0 0 1000 230" enable-background="new 0 0 1000 230" xml:space="preserve">
<path fill="none" opacity="1.000000" stroke="none" 
	d="
M656.000000,231.000000 
	C437.333344,231.000000 219.166672,231.000000 1.000000,231.000000 
	C1.000000,154.333328 1.000000,77.666664 1.000000,1.000000 
	C334.333344,1.000000 667.666687,1.000000 1001.000000,1.000000 
	C1001.000000,77.666664 1001.000000,154.333328 1001.000000,231.000000 
	C886.166687,231.000000 771.333313,231.000000 656.000000,231.000000 
M95.971909,95.233002 
	C95.870682,94.255905 95.905807,93.241005 95.647079,92.307564 
	C93.126556,83.214188 90.532547,74.141212 88.006393,65.049377 
	C83.041946,47.181843 77.986473,29.337864 73.261261,11.407034 
	C72.301308,7.764267 70.699570,6.840267 67.160133,6.918789 
	C56.840172,7.147737 46.511856,7.000081 36.186817,7.000079 
	C27.891441,7.000076 19.596067,7.000079 11.062030,7.000079 
	C11.062030,8.284265 10.879746,9.144252 11.088759,9.895351 
	C15.973422,27.448595 20.910603,44.987209 25.817173,62.534370 
	C32.871750,87.763351 39.965477,112.981583 46.939892,138.232742 
	C54.693253,166.304092 62.301556,194.415604 70.132851,222.465012 
	C70.434792,223.546494 72.393257,224.881348 73.589104,224.890533 
	C93.220146,225.041275 112.852692,224.997574 132.463608,224.997574 
	C133.032333,223.335068 133.575195,221.986115 133.958237,220.593216 
	C140.774490,195.806839 147.607727,171.024994 154.328751,146.212769 
	C155.221512,142.916931 155.522949,139.460953 156.747009,135.686356 
	C158.191406,130.492523 159.635818,125.298683 161.859222,120.063652 
	C162.140945,120.197418 162.622391,120.276581 162.676010,120.472733 
	C167.827194,139.311462 172.904175,158.170547 178.088409,177.000122 
	C179.984756,183.887772 182.130707,190.706696 184.486343,198.647614 
	C185.590668,195.486938 186.401825,193.533676 186.960587,191.510696 
	C195.063370,162.174942 203.189224,132.845291 211.160675,103.473785 
	C212.730484,97.689713 215.561462,91.377281 214.528046,85.931473 
	C212.080734,73.034821 207.613693,60.525780 204.052261,47.835045 
	C200.240479,34.252220 196.530777,20.640747 192.814804,7.180433 
	C171.957031,7.180433 151.665466,7.180433 131.379562,7.180433 
	C129.594620,13.442450 127.811478,19.523636 126.128784,25.632492 
	C119.731773,48.856205 113.437035,72.108406 106.942963,95.304855 
	C105.252953,101.341469 102.978767,107.214539 100.289528,112.730469 
	C98.806465,107.173782 97.323402,101.617096 95.971909,95.233002 
M240.013657,50.561577 
	C230.632584,84.537338 221.251495,118.513107 211.731018,152.993759 
	C231.917542,152.993759 251.397095,153.089081 270.870575,152.789658 
	C272.239471,152.768600 274.294312,150.035019 274.800659,148.219803 
	C285.124573,111.206734 295.265381,74.142616 305.451752,37.091160 
	C308.182800,27.157364 310.943420,17.231697 313.773987,7.000395 
	C293.937775,7.000395 274.776764,7.056512 255.616760,6.940129 
	C252.729874,6.922593 251.666046,8.061014 250.958282,10.680650 
	C247.434158,23.724354 243.731659,36.719864 240.013657,50.561577 
M621.051514,173.546432 
	C624.585815,159.673935 628.120056,145.801437 631.935608,130.825089 
	C635.834045,145.253052 639.265442,158.449814 643.091614,171.531082 
	C643.614502,173.318832 645.919739,175.464920 647.723083,175.824738 
	C652.179443,176.713943 656.853210,177.136154 661.383606,176.852585 
	C665.693970,176.582748 669.453125,175.131927 670.769104,169.773773 
	C676.648926,145.832993 682.911255,121.986298 688.857788,98.061485 
	C689.220276,96.603210 688.523621,94.350609 687.502625,93.181046 
	C684.656616,89.921173 672.601746,90.023674 669.472778,93.069580 
	C668.900391,93.626808 668.266357,94.301689 668.068481,95.032616 
	C666.975220,99.071449 666.039734,103.152603 664.992004,107.204208 
	C662.160034,118.155426 659.298828,129.099075 656.449219,140.045715 
	C652.656738,128.367813 649.905090,116.695366 646.981323,105.066208 
	C643.268982,90.300652 646.485901,91.080162 629.287903,90.910545 
	C624.523804,90.863556 622.049072,92.641769 621.000244,97.154762 
	C617.635864,111.630219 614.165527,126.081039 610.659912,140.862793 
	C609.997803,139.789673 609.375122,139.160843 609.188721,138.421951 
	C605.760193,124.829903 602.237061,111.258545 599.086243,97.601517 
	C598.149109,93.539375 596.218018,91.227287 592.154358,91.046028 
	C587.996643,90.860558 583.764954,90.583183 579.678589,91.154022 
	C576.888428,91.543785 573.264709,92.345688 574.492126,96.980011 
	C581.046387,121.727760 587.516235,146.498077 594.176819,171.217072 
	C594.640625,172.938217 596.168701,175.322937 597.616516,175.670197 
	C605.444702,177.547760 613.368225,178.318192 621.051514,173.546432 
M430.472778,168.977585 
	C431.255798,171.840820 431.253357,175.457840 435.189514,175.918304 
	C440.227203,176.507675 445.324799,177.001862 450.381653,176.885864 
	C454.869385,176.782913 457.901245,174.753693 459.111938,169.613861 
	C464.170502,148.139038 469.280670,126.660286 475.157196,105.400032 
	C478.920715,91.784348 477.767914,90.813217 464.165955,90.982964 
	C459.520203,91.040947 457.046844,92.939972 455.889557,97.766144 
	C452.441833,112.143761 448.481567,126.398476 444.387878,141.970551 
	C441.396881,129.339035 438.644318,117.941200 436.005859,106.517014 
	C432.302826,90.483284 432.339111,90.475433 417.099457,90.998291 
	C416.434143,91.021126 415.577728,90.754234 415.135559,91.073189 
	C413.361328,92.352997 410.682587,93.520638 410.196716,95.251457 
	C407.804047,103.774467 406.064911,112.478668 403.977997,121.090523 
	C402.397400,127.612968 400.640808,134.092758 398.620605,141.915710 
	C394.482697,125.226357 390.787689,110.052383 386.846771,94.942558 
	C386.531281,93.732948 384.620300,92.323372 383.277100,92.112404 
	C379.095703,91.455681 374.832703,91.087555 370.597809,91.053947 
	C363.225281,90.995445 361.762360,93.368622 363.768036,100.428268 
	C366.670502,110.644196 369.231506,120.956596 372.011871,131.207840 
	C375.632050,144.555298 379.269104,157.898895 383.053589,171.200150 
	C383.543488,172.921997 384.849792,175.658585 385.958008,175.750366 
	C392.070740,176.256531 398.247803,175.912216 404.386169,176.206589 
	C409.115295,176.433380 410.125885,173.138031 410.935272,169.807983 
	C414.129242,156.667007 417.160461,143.486465 420.395844,129.708237 
	C420.889893,131.576263 421.228424,132.793564 421.533447,134.019211 
	C424.373596,145.432159 427.208008,156.846542 430.472778,168.977585 
M530.795288,177.046494 
	C545.124695,177.483231 558.631409,168.149338 563.080200,153.245483 
	C566.882019,140.509232 566.923828,127.752090 563.493225,115.153481 
	C560.894775,105.610725 555.023010,98.408974 545.700317,93.801117 
	C537.768982,89.880928 529.566040,89.441910 521.311768,90.132393 
	C506.817413,91.344856 495.184448,97.434120 489.903656,113.188515 
	C486.151489,124.382538 485.961945,135.728439 488.065948,147.090027 
	C492.515228,171.116226 509.048462,178.536438 530.795288,177.046494 
M863.555969,92.913948 
	C860.864075,94.239059 858.172241,95.564178 855.000000,97.125755 
	C855.000000,84.632301 855.007019,72.535156 854.996704,60.438026 
	C854.992188,55.153397 853.811707,54.130547 847.672974,54.001392 
	C842.554382,53.893707 841.002808,55.408012 841.002258,60.572407 
	C840.998108,97.528435 841.000000,134.484467 841.000000,171.440491 
	C841.000000,172.908844 841.000000,174.377197 841.000000,175.735397 
	C848.646240,177.728561 848.646240,177.728561 854.157471,167.453735 
	C858.281799,169.914246 862.157715,173.047745 866.585449,174.722031 
	C883.289490,181.038223 898.501648,175.596161 905.781006,159.162064 
	C911.625610,145.966843 912.421997,131.834915 908.974182,117.680595 
	C906.902100,109.173920 903.447937,101.349937 896.069580,96.035721 
	C886.161438,88.899391 875.327698,88.863907 863.555969,92.913948 
M201.097763,190.670090 
	C198.054901,201.949417 195.012024,213.228729 191.837891,224.994675 
	C211.787491,224.994675 231.263336,225.050201 250.736618,224.852844 
	C251.871262,224.841339 253.574982,222.973892 254.007477,221.643097 
	C255.968307,215.609650 257.583801,209.463242 259.293701,203.349136 
	C262.619385,191.457397 265.925079,179.560043 269.209869,167.769730 
	C268.486420,167.380081 268.203857,167.095016 267.920685,167.094345 
	C248.756592,167.049820 229.592255,166.991287 210.428848,167.097824 
	C209.302353,167.104095 207.468292,168.242798 207.175705,169.218170 
	C205.117432,176.079391 203.377304,183.036041 201.097763,190.670090 
M748.876892,162.383667 
	C752.556152,172.752716 760.985046,176.125259 770.876587,176.955109 
	C782.599792,177.938629 793.283936,175.489883 801.495422,166.000320 
	C804.553284,176.201675 805.672363,177.212479 812.549500,175.971558 
	C815.996704,175.349533 817.577026,173.426498 816.989624,169.716705 
	C816.176636,164.582565 815.192688,159.412308 815.089233,154.241379 
	C814.822632,140.924362 815.020996,127.598404 814.992798,114.276108 
	C814.973022,104.959381 808.554382,96.142387 799.821289,92.996696 
	C785.423462,87.810562 771.381287,89.866425 757.626404,95.214928 
	C751.159363,97.729630 750.451111,101.870613 754.909607,107.353012 
	C755.730286,108.362137 756.785339,109.180626 757.680664,110.037712 
	C769.010864,104.593849 774.865417,103.431976 783.265808,102.895660 
	C794.978821,102.147858 802.760315,109.651604 800.673401,121.954124 
	C789.960754,123.320511 779.310364,123.974655 768.994873,126.188797 
	C758.247681,128.495605 749.346497,134.079666 748.040161,146.450775 
	C747.506409,151.505020 748.172729,156.685959 748.876892,162.383667 
M964.539001,137.964447 
	C966.239075,135.595749 967.908386,133.204285 969.644592,130.862381 
	C976.406433,121.741371 983.565063,112.878746 989.714478,103.363205 
	C991.359985,100.817017 990.396423,96.198341 989.651489,92.742134 
	C989.442993,91.774742 985.746216,91.090828 983.643188,91.074226 
	C966.814148,90.941376 949.983582,90.992348 933.153442,91.004898 
	C928.401978,91.008438 926.750061,92.618477 927.062866,97.598648 
	C927.296143,101.313011 928.069641,104.317749 933.363159,104.135834 
	C945.738220,103.710579 958.137756,104.000000 971.095215,104.000000 
	C966.010681,110.650200 961.374756,116.673462 956.781738,122.729332 
	C946.380310,136.443558 936.050598,150.212677 925.575378,163.870239 
	C922.967163,167.270920 924.654419,170.184723 925.709412,173.424179 
	C926.841003,176.899139 929.521179,175.967926 931.828613,175.974152 
	C949.325134,176.021408 966.823120,175.887268 984.317688,176.078079 
	C988.775757,176.126694 991.299866,175.821838 991.220703,170.117691 
	C991.147095,164.821884 989.395691,163.777054 984.557495,163.893448 
	C971.577209,164.205750 958.584473,164.000000 944.556824,164.000000 
	C951.322998,155.124161 957.668762,146.799911 964.539001,137.964447 
M719.000000,134.499939 
	C719.000000,109.541794 718.887024,84.582748 719.085754,59.626186 
	C719.130920,53.951366 715.185242,54.135605 711.885132,54.163017 
	C708.806152,54.188587 704.901489,53.914330 704.925903,59.359085 
	C705.074524,92.469559 704.886963,125.581764 705.102478,158.691498 
	C705.142151,164.775604 707.507385,170.028488 713.113464,173.815292 
	C719.648621,178.229599 726.675659,177.252914 733.548767,176.619720 
	C737.487610,176.256851 738.618164,172.596069 737.906128,168.640121 
	C737.162903,164.510391 734.701355,163.264877 730.880981,164.044586 
	C724.004089,165.448105 721.299744,164.478256 720.120789,157.637436 
	C718.875000,150.408554 719.303101,142.891190 719.000000,134.499939 
z"/>
<path fill="#1CADE3" opacity="1.000000" stroke="none" 
	d="
M156.098236,136.079132 
	C155.522949,139.460953 155.221512,142.916931 154.328751,146.212769 
	C147.607727,171.024994 140.774490,195.806839 133.958237,220.593216 
	C133.575195,221.986115 133.032333,223.335068 132.463608,224.997574 
	C112.852692,224.997574 93.220146,225.041275 73.589104,224.890533 
	C72.393257,224.881348 70.434792,223.546494 70.132851,222.465012 
	C62.301556,194.415604 54.693253,166.304092 46.939892,138.232742 
	C39.965477,112.981583 32.871750,87.763351 25.817173,62.534370 
	C20.910603,44.987209 15.973422,27.448595 11.088759,9.895351 
	C10.879746,9.144252 11.062030,8.284265 11.062030,7.000079 
	C19.596067,7.000079 27.891441,7.000076 36.186817,7.000079 
	C46.511856,7.000081 56.840172,7.147737 67.160133,6.918789 
	C70.699570,6.840267 72.301308,7.764267 73.261261,11.407034 
	C77.986473,29.337864 83.041946,47.181843 88.006393,65.049377 
	C90.532547,74.141212 93.126556,83.214188 95.647079,92.307564 
	C95.905807,93.241005 95.870682,94.255905 95.642441,95.901802 
	C93.546028,105.464279 91.704254,114.343864 90.027046,123.254440 
	C86.030052,144.489410 82.087311,165.734680 78.173286,186.985107 
	C76.866051,194.082520 75.712440,201.208252 74.488609,208.321030 
	C77.672874,201.828415 79.810852,195.136795 81.686691,188.372467 
	C86.801842,169.927170 91.909500,151.478439 96.798889,132.972610 
	C98.520477,126.456573 99.600143,119.770927 100.972900,113.162727 
	C102.978767,107.214539 105.252953,101.341469 106.942963,95.304855 
	C113.437035,72.108406 119.731773,48.856205 126.128784,25.632492 
	C127.811478,19.523636 129.594620,13.442450 131.379562,7.180433 
	C151.665466,7.180433 171.957031,7.180433 192.814804,7.180433 
	C196.530777,20.640747 200.240479,34.252220 204.052261,47.835045 
	C207.613693,60.525780 212.080734,73.034821 214.528046,85.931473 
	C215.561462,91.377281 212.730484,97.689713 211.160675,103.473785 
	C203.189224,132.845291 195.063370,162.174942 186.960587,191.510696 
	C186.401825,193.533676 185.590668,195.486938 184.486343,198.647614 
	C182.130707,190.706696 179.984756,183.887772 178.088409,177.000122 
	C172.904175,158.170547 167.827194,139.311462 162.676010,120.472733 
	C162.622391,120.276581 162.140945,120.197418 161.475311,119.709656 
	C160.916458,116.954140 161.128357,114.447113 160.506531,112.167496 
	C154.554337,90.346840 148.456665,68.565887 142.410950,46.770714 
	C140.147064,38.609203 137.910080,30.440231 135.660828,22.274660 
	C135.244522,22.377556 134.828201,22.480453 134.411896,22.583349 
	C137.140335,37.472645 139.874191,52.360950 142.595642,67.251518 
	C145.089203,80.895325 147.455948,94.563545 150.094711,108.179123 
	C151.904282,117.516258 154.083984,126.781662 156.098236,136.079132 
z"/>
<path fill="#1CADE3" opacity="1.000000" stroke="none" 
	d="
M240.052795,50.146957 
	C243.731659,36.719864 247.434158,23.724354 250.958282,10.680650 
	C251.666046,8.061014 252.729874,6.922593 255.616760,6.940129 
	C274.776764,7.056512 293.937775,7.000395 313.773987,7.000395 
	C310.943420,17.231697 308.182800,27.157364 305.451752,37.091160 
	C295.265381,74.142616 285.124573,111.206734 274.800659,148.219803 
	C274.294312,150.035019 272.239471,152.768600 270.870575,152.789658 
	C251.397095,153.089081 231.917542,152.993759 211.731018,152.993759 
	C221.251495,118.513107 230.632584,84.537338 240.052795,50.146957 
z"/>
<path fill="#221F1F" opacity="1.000000" stroke="none" 
	d="
M620.995178,173.959518 
	C613.368225,178.318192 605.444702,177.547760 597.616516,175.670197 
	C596.168701,175.322937 594.640625,172.938217 594.176819,171.217072 
	C587.516235,146.498077 581.046387,121.727760 574.492126,96.980011 
	C573.264709,92.345688 576.888428,91.543785 579.678589,91.154022 
	C583.764954,90.583183 587.996643,90.860558 592.154358,91.046028 
	C596.218018,91.227287 598.149109,93.539375 599.086243,97.601517 
	C602.237061,111.258545 605.760193,124.829903 609.188721,138.421951 
	C609.375122,139.160843 609.997803,139.789673 610.659912,140.862793 
	C614.165527,126.081039 617.635864,111.630219 621.000244,97.154762 
	C622.049072,92.641769 624.523804,90.863556 629.287903,90.910545 
	C646.485901,91.080162 643.268982,90.300652 646.981323,105.066208 
	C649.905090,116.695366 652.656738,128.367813 656.449219,140.045715 
	C659.298828,129.099075 662.160034,118.155426 664.992004,107.204208 
	C666.039734,103.152603 666.975220,99.071449 668.068481,95.032616 
	C668.266357,94.301689 668.900391,93.626808 669.472778,93.069580 
	C672.601746,90.023674 684.656616,89.921173 687.502625,93.181046 
	C688.523621,94.350609 689.220276,96.603210 688.857788,98.061485 
	C682.911255,121.986298 676.648926,145.832993 670.769104,169.773773 
	C669.453125,175.131927 665.693970,176.582748 661.383606,176.852585 
	C656.853210,177.136154 652.179443,176.713943 647.723083,175.824738 
	C645.919739,175.464920 643.614502,173.318832 643.091614,171.531082 
	C639.265442,158.449814 635.834045,145.253052 631.935608,130.825089 
	C628.120056,145.801437 624.585815,159.673935 620.995178,173.959518 
z"/>
<path fill="#221F1F" opacity="1.000000" stroke="none" 
	d="
M430.258423,168.619049 
	C427.208008,156.846542 424.373596,145.432159 421.533447,134.019211 
	C421.228424,132.793564 420.889893,131.576263 420.395844,129.708237 
	C417.160461,143.486465 414.129242,156.667007 410.935272,169.807983 
	C410.125885,173.138031 409.115295,176.433380 404.386169,176.206589 
	C398.247803,175.912216 392.070740,176.256531 385.958008,175.750366 
	C384.849792,175.658585 383.543488,172.921997 383.053589,171.200150 
	C379.269104,157.898895 375.632050,144.555298 372.011871,131.207840 
	C369.231506,120.956596 366.670502,110.644196 363.768036,100.428268 
	C361.762360,93.368622 363.225281,90.995445 370.597809,91.053947 
	C374.832703,91.087555 379.095703,91.455681 383.277100,92.112404 
	C384.620300,92.323372 386.531281,93.732948 386.846771,94.942558 
	C390.787689,110.052383 394.482697,125.226357 398.620605,141.915710 
	C400.640808,134.092758 402.397400,127.612968 403.977997,121.090523 
	C406.064911,112.478668 407.804047,103.774467 410.196716,95.251457 
	C410.682587,93.520638 413.361328,92.352997 415.135559,91.073189 
	C415.577728,90.754234 416.434143,91.021126 417.099457,90.998291 
	C432.339111,90.475433 432.302826,90.483284 436.005859,106.517014 
	C438.644318,117.941200 441.396881,129.339035 444.387878,141.970551 
	C448.481567,126.398476 452.441833,112.143761 455.889557,97.766144 
	C457.046844,92.939972 459.520203,91.040947 464.165955,90.982964 
	C477.767914,90.813217 478.920715,91.784348 475.157196,105.400032 
	C469.280670,126.660286 464.170502,148.139038 459.111938,169.613861 
	C457.901245,174.753693 454.869385,176.782913 450.381653,176.885864 
	C445.324799,177.001862 440.227203,176.507675 435.189514,175.918304 
	C431.253357,175.457840 431.255798,171.840820 430.258423,168.619049 
z"/>
<path fill="#221F1F" opacity="1.000000" stroke="none" 
	d="
M530.400513,177.268829 
	C509.048462,178.536438 492.515228,171.116226 488.065948,147.090027 
	C485.961945,135.728439 486.151489,124.382538 489.903656,113.188515 
	C495.184448,97.434120 506.817413,91.344856 521.311768,90.132393 
	C529.566040,89.441910 537.768982,89.880928 545.700317,93.801117 
	C555.023010,98.408974 560.894775,105.610725 563.493225,115.153481 
	C566.923828,127.752090 566.882019,140.509232 563.080200,153.245483 
	C558.631409,168.149338 545.124695,177.483231 530.400513,177.268829 
M534.983276,154.522400 
	C538.491394,149.831726 539.532532,144.495422 540.256958,138.724899 
	C541.260498,130.731277 540.544250,123.242035 536.961426,116.139999 
	C534.600830,111.460648 530.576355,109.357292 525.167297,109.964668 
	C520.442261,110.495239 516.922180,112.412071 514.972778,116.979172 
	C511.099335,126.054222 511.575348,135.341415 512.933533,144.829910 
	C514.313354,154.469437 524.500183,162.205902 534.983276,154.522400 
z"/>
<path fill="#221F1F" opacity="1.000000" stroke="none" 
	d="
M863.847107,92.629135 
	C875.327698,88.863907 886.161438,88.899391 896.069580,96.035721 
	C903.447937,101.349937 906.902100,109.173920 908.974182,117.680595 
	C912.421997,131.834915 911.625610,145.966843 905.781006,159.162064 
	C898.501648,175.596161 883.289490,181.038223 866.585449,174.722031 
	C862.157715,173.047745 858.281799,169.914246 854.157471,167.453735 
	C848.646240,177.728561 848.646240,177.728561 841.000000,175.735397 
	C841.000000,174.377197 841.000000,172.908844 841.000000,171.440491 
	C841.000000,134.484467 840.998108,97.528435 841.002258,60.572407 
	C841.002808,55.408012 842.554382,53.893707 847.672974,54.001392 
	C853.811707,54.130547 854.992188,55.153397 854.996704,60.438026 
	C855.007019,72.535156 855.000000,84.632301 855.000000,97.125755 
	C858.172241,95.564178 860.864075,94.239059 863.847107,92.629135 
M877.095459,164.367493 
	C885.964294,164.003235 890.273560,158.090927 892.915588,150.735107 
	C896.101990,141.863617 895.645447,132.481232 894.785156,123.356804 
	C894.198608,117.135162 891.822632,111.009399 886.259521,107.048279 
	C877.300720,100.669189 867.950928,102.626190 858.550232,107.842255 
	C855.707153,109.419754 854.856140,111.314461 854.915710,114.506378 
	C855.130127,125.997597 855.244934,137.503143 854.874146,148.986404 
	C854.734375,153.313049 856.749390,155.694534 859.717834,157.970901 
	C864.671387,161.769547 870.272583,163.964142 877.095459,164.367493 
z"/>
<path fill="#1CADE3" opacity="1.000000" stroke="none" 
	d="
M201.316650,190.316147 
	C203.377304,183.036041 205.117432,176.079391 207.175705,169.218170 
	C207.468292,168.242798 209.302353,167.104095 210.428848,167.097824 
	C229.592255,166.991287 248.756592,167.049820 267.920685,167.094345 
	C268.203857,167.095016 268.486420,167.380081 269.209869,167.769730 
	C265.925079,179.560043 262.619385,191.457397 259.293701,203.349136 
	C257.583801,209.463242 255.968307,215.609650 254.007477,221.643097 
	C253.574982,222.973892 251.871262,224.841339 250.736618,224.852844 
	C231.263336,225.050201 211.787491,224.994675 191.837891,224.994675 
	C195.012024,213.228729 198.054901,201.949417 201.316650,190.316147 
z"/>
<path fill="#221F1F" opacity="1.000000" stroke="none" 
	d="
M748.585022,162.096466 
	C748.172729,156.685959 747.506409,151.505020 748.040161,146.450775 
	C749.346497,134.079666 758.247681,128.495605 768.994873,126.188797 
	C779.310364,123.974655 789.960754,123.320511 800.673401,121.954124 
	C802.760315,109.651604 794.978821,102.147858 783.265808,102.895660 
	C774.865417,103.431976 769.010864,104.593849 757.680664,110.037712 
	C756.785339,109.180626 755.730286,108.362137 754.909607,107.353012 
	C750.451111,101.870613 751.159363,97.729630 757.626404,95.214928 
	C771.381287,89.866425 785.423462,87.810562 799.821289,92.996696 
	C808.554382,96.142387 814.973022,104.959381 814.992798,114.276108 
	C815.020996,127.598404 814.822632,140.924362 815.089233,154.241379 
	C815.192688,159.412308 816.176636,164.582565 816.989624,169.716705 
	C817.577026,173.426498 815.996704,175.349533 812.549500,175.971558 
	C805.672363,177.212479 804.553284,176.201675 801.495422,166.000320 
	C793.283936,175.489883 782.599792,177.938629 770.876587,176.955109 
	C760.985046,176.125259 752.556152,172.752716 748.585022,162.096466 
M798.899109,135.621292 
	C794.593933,135.747528 790.217346,135.431152 786.001526,136.111298 
	C780.651428,136.974442 775.147644,137.994568 770.229858,140.139053 
	C764.430115,142.668152 762.052979,147.847992 762.972534,154.354355 
	C763.586609,158.699631 765.380249,162.241730 769.841858,163.239059 
	C773.138611,163.976028 776.861084,164.622894 780.007690,163.811783 
	C785.348633,162.435074 790.550720,160.208786 795.507996,157.732605 
	C801.847717,154.565903 801.450439,148.451996 800.959473,142.612366 
	C800.746460,140.078979 800.091614,137.582748 798.899109,135.621292 
z"/>
<path fill="#221F1F" opacity="1.000000" stroke="none" 
	d="
M964.276733,138.220047 
	C957.668762,146.799911 951.322998,155.124161 944.556824,164.000000 
	C958.584473,164.000000 971.577209,164.205750 984.557495,163.893448 
	C989.395691,163.777054 991.147095,164.821884 991.220703,170.117691 
	C991.299866,175.821838 988.775757,176.126694 984.317688,176.078079 
	C966.823120,175.887268 949.325134,176.021408 931.828613,175.974152 
	C929.521179,175.967926 926.841003,176.899139 925.709412,173.424179 
	C924.654419,170.184723 922.967163,167.270920 925.575378,163.870239 
	C936.050598,150.212677 946.380310,136.443558 956.781738,122.729332 
	C961.374756,116.673462 966.010681,110.650200 971.095215,104.000000 
	C958.137756,104.000000 945.738220,103.710579 933.363159,104.135834 
	C928.069641,104.317749 927.296143,101.313011 927.062866,97.598648 
	C926.750061,92.618477 928.401978,91.008438 933.153442,91.004898 
	C949.983582,90.992348 966.814148,90.941376 983.643188,91.074226 
	C985.746216,91.090828 989.442993,91.774742 989.651489,92.742134 
	C990.396423,96.198341 991.359985,100.817017 989.714478,103.363205 
	C983.565063,112.878746 976.406433,121.741371 969.644592,130.862381 
	C967.908386,133.204285 966.239075,135.595749 964.276733,138.220047 
z"/>
<path fill="#221F1F" opacity="1.000000" stroke="none" 
	d="
M719.000000,134.999893 
	C719.303101,142.891190 718.875000,150.408554 720.120789,157.637436 
	C721.299744,164.478256 724.004089,165.448105 730.880981,164.044586 
	C734.701355,163.264877 737.162903,164.510391 737.906128,168.640121 
	C738.618164,172.596069 737.487610,176.256851 733.548767,176.619720 
	C726.675659,177.252914 719.648621,178.229599 713.113464,173.815292 
	C707.507385,170.028488 705.142151,164.775604 705.102478,158.691498 
	C704.886963,125.581764 705.074524,92.469559 704.925903,59.359085 
	C704.901489,53.914330 708.806152,54.188587 711.885132,54.163017 
	C715.185242,54.135605 719.130920,53.951366 719.085754,59.626186 
	C718.887024,84.582748 719.000000,109.541794 719.000000,134.999893 
z"/>
<path fill="#018DB8" opacity="1.000000" stroke="none" 
	d="
M156.422623,135.882751 
	C154.083984,126.781662 151.904282,117.516258 150.094711,108.179123 
	C147.455948,94.563545 145.089203,80.895325 142.595642,67.251518 
	C139.874191,52.360950 137.140335,37.472645 134.411896,22.583349 
	C134.828201,22.480453 135.244522,22.377556 135.660828,22.274660 
	C137.910080,30.440231 140.147064,38.609203 142.410950,46.770714 
	C148.456665,68.565887 154.554337,90.346840 160.506531,112.167496 
	C161.128357,114.447113 160.916458,116.954140 161.085800,119.730255 
	C159.635818,125.298683 158.191406,130.492523 156.422623,135.882751 
z"/>
<path fill="#008DB8" opacity="1.000000" stroke="none" 
	d="
M100.631210,112.946594 
	C99.600143,119.770927 98.520477,126.456573 96.798889,132.972610 
	C91.909500,151.478439 86.801842,169.927170 81.686691,188.372467 
	C79.810852,195.136795 77.672874,201.828415 74.488609,208.321030 
	C75.712440,201.208252 76.866051,194.082520 78.173286,186.985107 
	C82.087311,165.734680 86.030052,144.489410 90.027046,123.254440 
	C91.704254,114.343864 93.546028,105.464279 95.576660,96.315506 
	C97.323402,101.617096 98.806465,107.173782 100.631210,112.946594 
z"/>
<path fill="none" opacity="1.000000" stroke="none" 
	d="
M534.700684,154.787643 
	C524.500183,162.205902 514.313354,154.469437 512.933533,144.829910 
	C511.575348,135.341415 511.099335,126.054222 514.972778,116.979172 
	C516.922180,112.412071 520.442261,110.495239 525.167297,109.964668 
	C530.576355,109.357292 534.600830,111.460648 536.961426,116.139999 
	C540.544250,123.242035 541.260498,130.731277 540.256958,138.724899 
	C539.532532,144.495422 538.491394,149.831726 534.700684,154.787643 
z"/>
<path fill="none" opacity="1.000000" stroke="none" 
	d="
M876.758606,164.604187 
	C870.272583,163.964142 864.671387,161.769547 859.717834,157.970901 
	C856.749390,155.694534 854.734375,153.313049 854.874146,148.986404 
	C855.244934,137.503143 855.130127,125.997597 854.915710,114.506378 
	C854.856140,111.314461 855.707153,109.419754 858.550232,107.842255 
	C867.950928,102.626190 877.300720,100.669189 886.259521,107.048279 
	C891.822632,111.009399 894.198608,117.135162 894.785156,123.356804 
	C895.645447,132.481232 896.101990,141.863617 892.915588,150.735107 
	C890.273560,158.090927 885.964294,164.003235 876.758606,164.604187 
z"/>
<path fill="none" opacity="1.000000" stroke="none" 
	d="
M799.268250,135.345474 
	C800.091614,137.582748 800.746460,140.078979 800.959473,142.612366 
	C801.450439,148.451996 801.847717,154.565903 795.507996,157.732605 
	C790.550720,160.208786 785.348633,162.435074 780.007690,163.811783 
	C776.861084,164.622894 773.138611,163.976028 769.841858,163.239059 
	C765.380249,162.241730 763.586609,158.699631 762.972534,154.354355 
	C762.052979,147.847992 764.430115,142.668152 770.229858,140.139053 
	C775.147644,137.994568 780.651428,136.974442 786.001526,136.111298 
	C790.217346,135.431152 794.593933,135.747528 799.268250,135.345474 
z"/>
</svg>